<?xml version="1.0" standalone="no"?>
<!DOCTYPE svg PUBLIC "-//W3C//DTD SVG 20010904//EN"
 "http://www.w3.org/TR/2001/REC-SVG-20010904/DTD/svg10.dtd">
<svg version="1.0" xmlns="http://www.w3.org/2000/svg"
 width="469.000000pt" height="469.000000pt" viewBox="0 0 469.000000 469.000000"
 preserveAspectRatio="xMidYMid meet">

<g transform="translate(0.000000,469.000000) scale(0.100000,-0.100000)"
fill="#000000" stroke="none">
<path d="M423 4645 c-69 -19 -115 -43 -188 -98 -105 -79 -183 -208 -205 -335
-7 -48 -10 -598 -8 -1907 l3 -1840 26 -72 c50 -135 151 -249 278 -312 120 -59
-7 -56 2016 -56 l1860 0 70 22 c179 56 323 208 370 389 13 51 15 292 15 1909
0 2041 4 1902 -63 2029 -42 80 -146 185 -222 224 -134 67 26 62 -2034 61
-1575 0 -1874 -3 -1918 -14z m1102 -650 c122 -31 289 -128 411 -238 l51 -47
59 52 c222 194 428 279 579 237 58 -16 136 -99 163 -171 44 -119 50 -287 16
-477 -8 -46 -13 -89 -11 -95 3 -7 25 -18 48 -25 24 -7 82 -29 128 -48 l83 -36
392 392 c418 418 419 418 466 371 48 -48 60 -35 -557 -652 l-578 -578 80 0
c103 -1 145 -6 230 -32 136 -40 215 -92 385 -257 165 -160 214 -186 350 -186
88 0 101 3 165 34 48 23 91 56 138 103 37 37 67 62 67 55 -1 -33 -71 -191
-113 -255 -84 -125 -190 -200 -342 -243 -64 -18 -106 -23 -210 -23 -262 0
-379 51 -598 262 -196 188 -252 218 -403 210 l-85 -4 -251 -251 -251 -251 54
15 c81 22 259 25 354 7 169 -33 268 -92 460 -279 159 -155 208 -180 350 -180
90 0 106 3 160 29 38 19 87 56 133 102 43 43 72 65 72 55 0 -26 -64 -175 -101
-236 -72 -120 -210 -221 -354 -259 -150 -40 -364 -30 -506 25 -103 40 -171 89
-321 234 -167 162 -220 190 -358 190 -88 0 -101 -3 -165 -34 -47 -23 -91 -56
-137 -103 -37 -38 -68 -67 -68 -65 0 3 7 24 15 47 8 23 15 45 15 49 0 3 -154
-148 -343 -337 -292 -291 -347 -342 -372 -342 -38 0 -65 26 -65 64 0 27 42 73
360 391 l360 360 -61 1 c-193 5 -298 205 -269 511 5 56 16 133 25 169 8 37 14
68 13 69 -2 1 -39 14 -83 29 -293 103 -485 273 -485 432 0 66 17 115 59 170
77 102 231 199 419 265 90 31 93 33 87 58 -38 149 -48 382 -21 484 23 83 39
119 76 161 70 79 162 102 285 71z"/>
<path d="M2442 3865 c-86 -30 -182 -86 -274 -161 -101 -83 -99 -71 -21 -166
38 -46 91 -111 117 -145 45 -60 49 -63 89 -63 39 0 228 -30 288 -45 l27 -7 17
117 c25 162 18 321 -18 398 -43 95 -103 114 -225 72z"/>
<path d="M1358 3865 c-70 -39 -106 -224 -79 -412 18 -122 32 -175 46 -169 12
4 216 39 305 51 41 5 49 12 87 64 23 32 75 95 114 141 l72 84 -34 29 c-220
187 -411 266 -511 212z"/>
<path d="M1910 3443 l-72 -88 76 -3 c42 -2 110 -2 151 0 l75 3 -71 85 c-39 47
-74 86 -78 88 -4 1 -41 -37 -81 -85z"/>
<path d="M1791 3221 l-54 -6 -63 -100 c-35 -55 -90 -151 -121 -212 l-58 -113
52 -102 c29 -57 84 -152 122 -213 l69 -110 248 -3 249 -2 51 82 c67 107 135
228 170 299 l27 56 -62 112 c-34 62 -89 157 -123 210 l-61 98 -75 7 c-87 7
-292 5 -371 -3z m306 -204 c83 -43 132 -127 133 -225 0 -141 -101 -242 -242
-242 -80 0 -132 24 -184 83 -111 126 -73 309 81 384 41 20 61 23 115 20 36 -2
79 -11 97 -20z"/>
<path d="M1450 3183 c-47 -8 -89 -19 -94 -23 -5 -6 7 -52 29 -114 22 -58 40
-104 42 -102 2 2 37 60 77 130 84 143 89 134 -54 109z"/>
<path d="M2400 3197 c0 -2 34 -61 75 -132 74 -127 75 -128 86 -99 44 116 69
188 64 192 -11 12 -225 48 -225 39z"/>
<path d="M1130 3101 c-210 -78 -365 -192 -385 -281 -23 -104 119 -236 351
-329 56 -23 108 -41 116 -41 9 0 21 22 32 58 10 31 38 106 62 165 24 59 44
114 44 122 0 7 -13 42 -29 77 -16 36 -44 108 -62 161 -19 53 -38 97 -44 96 -5
0 -44 -13 -85 -28z"/>
<path d="M2729 3063 c-12 -37 -41 -114 -65 -170 -38 -90 -42 -106 -32 -128 12
-26 12 -25 165 127 84 84 153 156 153 160 0 3 -35 20 -77 36 -131 50 -118 52
-144 -25z"/>
<path d="M1387 2537 c-21 -56 -37 -107 -37 -113 0 -11 78 -29 185 -41 l49 -6
-19 29 c-10 16 -43 72 -73 124 -29 52 -57 98 -61 102 -4 5 -24 -38 -44 -95z"/>
<path d="M1301 2253 c-36 -137 -39 -354 -6 -445 10 -28 32 -61 53 -79 34 -30
38 -31 107 -27 58 4 88 13 156 46 69 34 100 57 178 135 l93 95 -83 103 c-47
57 -93 117 -105 132 -18 26 -28 30 -105 38 -46 5 -123 16 -172 24 -48 8 -91
15 -97 15 -5 0 -14 -17 -19 -37z"/>
<path d="M1860 2200 c12 -17 43 -53 68 -81 l47 -50 80 80 80 81 -148 0 -148 0
21 -30z"/>
</g>
</svg>
